<?xml version="1.0" encoding="UTF-8"?>
<svg width="1024px" height="1024px" viewBox="0 0 1024 1024" version="1.1" xmlns="http://www.w3.org/2000/svg" xmlns:xlink="http://www.w3.org/1999/xlink">
    <title>logo</title>
    <g id="logo" stroke="none" stroke-width="1" fill="none" fill-rule="evenodd">
        <path d="M445,275.787234 L468.117647,196.638298 C480.960784,155.787234 540.039215,155.787234 552.882354,196.638298 L576,275.787234 C558.019609,280.893617 537.470589,286 511.784315,286 C486.098039,286 465.54902,280.893617 445,275.787234 Z M377,517.323077 C407.679245,540.446153 453.698113,561 512.5,561 C571.301886,561 617.320755,537.876924 648,517.323077 L612.207547,394 C589.198111,409.415384 555.962264,419.692308 512.5,419.692308 C469.037736,419.692308 435.801887,406.846154 412.792453,394 L377,517.323077 Z M670.344281,591 L683.146723,629.509615 C644.739398,657.749999 585.84817,683.423076 514.154499,683.423076 C439.900341,683.423076 383.5696,657.749999 345.162276,629.509615 L357.964717,591 L299.073488,591 C286.271047,591 278.589582,598.701922 273.468606,608.971153 L217.137865,824.625001 C212.016889,840.028847 224.81933,858 242.742747,858 L783.005764,858 C800.92918,858 811.171133,842.596154 808.610646,824.625001 L749.719418,608.971153 C747.158928,598.701922 736.916975,591 724.114535,591 L670.344281,591 L670.344281,591 Z" id="Shape" fill="#FE4F25" fill-rule="nonzero"></path>
    </g>
</svg>