<?xml version="1.0" encoding="UTF-8"?>
<svg width="1214px" height="311px" viewBox="0 0 1214 311" version="1.1" xmlns="http://www.w3.org/2000/svg" xmlns:xlink="http://www.w3.org/1999/xlink">
    <title>logo copy</title>
    <g id="logo-copy" stroke="none" stroke-width="1" fill="none" fill-rule="evenodd">
        <g id="Group" transform="translate(49, 36)" fill-rule="nonzero">
            <g id="SwiftVLC" transform="translate(243.0918, 41.9766)" fill="#FFFFFF">
                <path d="M52.9296875,152.34375 C84.375,152.34375 104.980469,135.9375 104.980469,109.570312 L104.980469,109.472656 C104.980469,89.1601562 93.359375,77.34375 63.9648437,70.8007812 L48.3398438,67.2851562 C29.1992188,63.0859375 21.484375,55.46875 21.484375,44.2382812 L21.484375,44.140625 C21.484375,29.3945312 35.0585938,21.09375 52.6367187,20.9960938 C70.9960938,20.8984375 82.7148438,30.078125 84.6679688,42.4804688 L84.8632812,43.75 L102.441406,43.75 L102.34375,42.3828125 C100.878906,21.3867188 81.25,4.78515625 53.125,4.78515625 C24.0234375,4.78515625 3.61328125,21.2890625 3.515625,44.6289062 L3.515625,44.7265625 C3.515625,65.1367188 15.7226562,78.125 43.9453125,84.375 L59.5703125,87.7929688 C78.90625,92.0898438 87.0117188,100.097656 87.0117188,111.816406 L87.0117188,111.914062 C87.0117188,126.269531 73.046875,136.132812 53.90625,136.132812 C33.59375,136.132812 18.9453125,127.246094 17.6757812,113.183594 L17.578125,112.109375 L0,112.109375 L0.09765625,113.183594 C2.1484375,136.132812 22.0703125,152.34375 52.9296875,152.34375 Z" id="Path"></path>
                <polygon id="Path" points="152.34375 149.023438 169.335938 149.023438 192.773438 67.578125 194.335938 67.578125 217.871094 149.023438 234.960938 149.023438 264.453125 43.75 247.558594 43.75 226.855469 127.929688 225.292969 127.929688 201.757812 43.75 185.644531 43.75 162.109375 127.929688 160.546875 127.929688 139.84375 43.75 122.851562 43.75"></polygon>
                <path d="M295.898438,23.4375 C302.34375,23.4375 307.617188,18.1640625 307.617188,11.71875 C307.617188,5.2734375 302.34375,0 295.898438,0 C289.453125,0 284.179688,5.2734375 284.179688,11.71875 C284.179688,18.1640625 289.453125,23.4375 295.898438,23.4375 Z M287.304688,149.023438 L304.296875,149.023438 L304.296875,43.75 L287.304688,43.75 L287.304688,149.023438 Z" id="Shape"></path>
                <path d="M343.359375,149.023438 L360.351562,149.023438 L360.351562,57.8125 L384.277344,57.8125 L384.277344,43.75 L360.351562,43.75 L360.351562,32.5195312 C360.351562,20.9960938 365.234375,15.0390625 377.34375,15.0390625 C380.371094,15.0390625 383.203125,15.1367188 385.253906,15.5273438 L385.253906,1.953125 C381.738281,1.26953125 378.027344,0.9765625 373.925781,0.9765625 C353.90625,0.9765625 343.359375,11.0351562 343.359375,32.03125 L343.359375,43.75 L325.878906,43.75 L325.878906,57.8125 L343.359375,57.8125 L343.359375,149.023438 Z" id="Path"></path>
                <path d="M446.09375,149.804688 C449.414062,149.804688 452.636719,149.414062 455.957031,148.828125 L455.957031,134.375 C452.832031,134.667969 451.171875,134.765625 448.144531,134.765625 C437.207031,134.765625 432.910156,129.785156 432.910156,117.382812 L432.910156,57.8125 L455.957031,57.8125 L455.957031,43.75 L432.910156,43.75 L432.910156,16.5039062 L415.332031,16.5039062 L415.332031,43.75 L398.730469,43.75 L398.730469,57.8125 L415.332031,57.8125 L415.332031,121.679688 C415.332031,141.796875 424.414062,149.804688 446.09375,149.804688 Z" id="Path"></path>
                <polygon id="Path" points="519.53125 149.023438 555.859375 149.023438 602.832031 8.10546875 569.628906 8.10546875 538.574219 116.210938 536.816406 116.210938 505.664062 8.10546875 472.558594 8.10546875"></polygon>
                <polygon id="Path" points="626.855469 149.023438 719.042969 149.023438 719.042969 124.707031 656.347656 124.707031 656.347656 8.10546875 626.855469 8.10546875"></polygon>
                <path d="M801.757812,152.636719 C835.742188,152.636719 859.863281,132.519531 862.890625,103.027344 L862.988281,101.953125 L834.277344,101.953125 L834.082031,102.734375 C830.957031,117.773438 818.75,127.636719 801.855469,127.636719 C779.589844,127.636719 765.820312,108.886719 765.820312,78.6132812 L765.820312,78.4179688 C765.820312,48.1445312 779.589844,29.4921875 801.757812,29.4921875 C818.554688,29.4921875 831.152344,40.234375 834.179688,56.0546875 L834.179688,56.7382812 L862.890625,56.7382812 L862.890625,55.5664062 C860.15625,25.78125 835.15625,4.4921875 801.757812,4.4921875 C760.839844,4.4921875 735.644531,32.7148438 735.644531,78.4179688 L735.644531,78.6132812 C735.644531,124.316406 760.9375,152.636719 801.757812,152.636719 Z" id="Path"></path>
            </g>
            <g id="vlc-logo-player-svgrepo-com" fill="#FF714F">
                <path d="M78.7864228,37.9037037 L86.7140053,10.5777778 C91.1182177,-3.52592593 111.377595,-3.52592593 115.781808,10.5777778 L123.70939,37.9037037 C117.543493,39.6666667 110.496753,41.4296296 101.688328,41.4296296 C92.8799027,41.4296296 85.8331628,39.6666667 78.7864228,37.9037037 Z M55.0036755,120.762963 C65.5737854,128.696296 81.4289503,135.748148 101.688328,135.748148 C121.947705,135.748148 137.80287,127.814815 148.37298,120.762963 L136.041185,78.4518519 C128.113602,83.7407407 116.66265,87.2666667 101.688328,87.2666667 C86.7140053,87.2666667 75.2630528,82.8592593 67.3354704,78.4518519 L55.0036755,120.762963 Z M156.300562,146.325926 L160.704775,159.548148 C147.492137,169.244444 127.23276,178.059259 102.56917,178.059259 C77.0247378,178.059259 57.646203,169.244444 44.4335656,159.548148 L48.837778,146.325926 L28.5784007,146.325926 C24.1741882,146.325926 21.5316607,148.97037 19.7699758,152.496296 L0.391440903,226.540741 C-1.37024408,231.82963 3.03396838,238 9.19986584,238 L195.057632,238 C201.223529,238 204.746899,232.711111 203.866057,226.540741 L183.60668,152.496296 C182.725837,148.97037 179.202467,146.325926 174.798255,146.325926 L156.300562,146.325926 L156.300562,146.325926 Z" id="Shape"></path>
            </g>
        </g>
    </g>
</svg>