<?xml version="1.0" encoding="UTF-8"?>
<svg width="1214px" height="311px" viewBox="0 0 1214 311" version="1.1" xmlns="http://www.w3.org/2000/svg" xmlns:xlink="http://www.w3.org/1999/xlink">
    <title>logo</title>
    <g id="logo" stroke="none" stroke-width="1" fill="none" fill-rule="evenodd">
        <g id="Group" transform="translate(49, 36)">
            <text id="SwiftVLC" font-family="SFProText-Regular, SF Pro Text" font-size="200" font-weight="normal" fill="#000000">
                <tspan x="231.861328" y="191">Swift</tspan>
                <tspan x="708.619141" y="191" font-family="SFProText-Bold, SF Pro Text" font-weight="bold">VLC</tspan>
            </text>
            <g id="vlc-logo-player-svgrepo-com" fill="#FE4F25" fill-rule="nonzero">
                <path d="M78.7864228,37.9037037 L86.7140053,10.5777778 C91.1182177,-3.52592593 111.377595,-3.52592593 115.781808,10.5777778 L123.70939,37.9037037 C117.543493,39.6666667 110.496753,41.4296296 101.688328,41.4296296 C92.8799027,41.4296296 85.8331628,39.6666667 78.7864228,37.9037037 Z M55.0036755,120.762963 C65.5737854,128.696296 81.4289503,135.748148 101.688328,135.748148 C121.947705,135.748148 137.80287,127.814815 148.37298,120.762963 L136.041185,78.4518519 C128.113602,83.7407407 116.66265,87.2666667 101.688328,87.2666667 C86.7140053,87.2666667 75.2630528,82.8592593 67.3354704,78.4518519 L55.0036755,120.762963 Z M156.300562,146.325926 L160.704775,159.548148 C147.492137,169.244444 127.23276,178.059259 102.56917,178.059259 C77.0247378,178.059259 57.646203,169.244444 44.4335656,159.548148 L48.837778,146.325926 L28.5784007,146.325926 C24.1741882,146.325926 21.5316607,148.97037 19.7699758,152.496296 L0.391440903,226.540741 C-1.37024408,231.82963 3.03396838,238 9.19986584,238 L195.057632,238 C201.223529,238 204.746899,232.711111 203.866057,226.540741 L183.60668,152.496296 C182.725837,148.97037 179.202467,146.325926 174.798255,146.325926 L156.300562,146.325926 L156.300562,146.325926 Z" id="Shape"></path>
            </g>
        </g>
    </g>
</svg>